# xmcd CD database file
#
# Track frame offsets:
#	150
#	13697
#	25687
#	37480
#	48747
#	60695
#	73500
#	86567
#	100692
#	114802
#	128160
#	141442
#	155700
#	169947
#	183520
#	197332
#	210057
#	223347
#	237982
#	250610
#	264372
#	279310
#
# Disc length: 3893 seconds
#
# Revision: 1
# Processed by: cddbd v1.5.2PL0 Copyright (c) Steve Scherf et al.
# Submitted via: CDex 1.51
#
DISCID=3a0f3316
DTITLE=Fletcher Henderson - Vol. 179 - Fletcher Henderson 1924 - 1938
DYEAR=1960
DGENRE=Jazz
TTITLE0=Christopher Columbus
TTITLE1=Moten Stomp (Moten Swing)
TTITLE2=Rhythm Of The Tambourine
TTITLE3=Back In Your Own Backyard
TTITLE4=Sing Your Sinners
TTITLE5=Yeah Man
TTITLE6=Big John's Special
TTITLE7=Shanghai Shuffle
TTITLE8=New King Porter Stomp
TTITLE9=Big Chief De Sota (Grand Terrace Swing)
TTITLE10=Stealin' Apples
TTITLE11=Blue Loi
TTITLE12=Clarinet Marmelade
TTITLE13=Wang Wang Blues
TTITLE14=I'm Coming Virginia
TTITLE15=What-Cha-Call-'em Blues
TTITLE16=Teapot Dome Blues
TTITLE17=The Stampede
TTITLE18=Singing The Blues
TTITLE19=Chinatown, My Chinatown
TTITLE20=Sugarfoot Stomp
TTITLE21=Henderson Stomp
EXTD=YEAR: 1960
EXTT0=
EXTT1=
EXTT2=
EXTT3=
EXTT4=
EXTT5=
EXTT6=
EXTT7=
EXTT8=
EXTT9=
EXTT10=
EXTT11=
EXTT12=
EXTT13=
EXTT14=
EXTT15=
EXTT16=
EXTT17=
EXTT18=
EXTT19=
EXTT20=
EXTT21=
PLAYORDER=
